<?xml version="1.0" encoding="UTF-8"?>
<svg width="140px" height="140px" viewBox="0 0 140 140" version="1.1" xmlns="http://www.w3.org/2000/svg" xmlns:xlink="http://www.w3.org/1999/xlink">
    <!-- Generator: sketchtool 53.2 (72643) - https://sketchapp.com -->
    <title>2135E026-1B85-499E-BB78-0EBE5FEF6B55</title>
    <desc>Created with sketchtool.</desc>
    <g id="GUI" stroke="none" stroke-width="1" fill="none" fill-rule="evenodd">
        <g id="Alacris-GUI-variant-2" transform="translate(-484.000000, -5894.000000)" fill="#DDDEE0" fill-rule="nonzero">
            <path d="M530.666667,5982.66667 L530.666667,5985 L586.666667,5985 C587.955241,5985 589,5986.04476 589,5987.33333 C589,5988.62191 587.955241,5989.66667 586.666667,5989.66667 L530.666667,5989.66667 L530.666667,5992 C530.666667,5993.28857 529.621908,5994.33333 528.333333,5994.33333 C527.044759,5994.33333 526,5993.28857 526,5992 L526,5989.66667 L519,5989.66667 C517.711426,5989.66667 516.666667,5988.62191 516.666667,5987.33333 C516.666667,5986.04476 517.711426,5985 519,5985 L526,5985 L526,5982.66667 C526,5981.37809 527.044759,5980.33333 528.333333,5980.33333 C529.621908,5980.33333 530.666667,5981.37809 530.666667,5982.66667 Z M545.772949,5952.68083 C546.46224,5952.25928 547.321289,5952.2251 548.042481,5952.58968 L566.709147,5961.92301 C567.502116,5962.31836 568.002278,5963.12728 568.002278,5964.01139 C568.002278,5964.89665 567.502116,5965.70557 566.709147,5966.09977 L548.042481,5975.43311 C547.317871,5975.79541 546.456543,5975.75553 545.767253,5975.32715 C545.079101,5974.89876 544.662109,5974.14453 544.666667,5973.33333 L544.666667,5954.66667 C544.666667,5953.85775 545.084798,5953.10693 545.772949,5952.68083 L545.772949,5952.68083 Z M549.333333,5958.44238 L549.333333,5969.55762 L560.449707,5964 L549.333333,5958.44238 Z M528.333333,5957 C527.044759,5957 526,5958.04476 526,5959.33333 L526,5961.66667 L528.333333,5961.66667 C529.621908,5961.66667 530.666667,5962.71143 530.666667,5964 C530.666667,5965.28857 529.621908,5966.33333 528.333333,5966.33333 L526,5966.33333 L526,5973.33333 C526,5974.62191 524.955241,5975.66667 523.666667,5975.66667 C522.378092,5975.66667 521.333333,5974.62191 521.333333,5973.33333 L521.333333,5966.33333 L519,5966.33333 C517.711426,5966.33333 516.666667,5965.28857 516.666667,5964 C516.666667,5962.71143 517.711426,5961.66667 519,5961.66667 L521.333333,5961.66667 L521.333333,5959.33333 C521.333333,5955.46761 524.467611,5952.33333 528.333333,5952.33333 C529.621908,5952.33333 530.666667,5953.37809 530.666667,5954.66667 C530.666667,5955.95524 529.621908,5957 528.333333,5957 Z M579.666667,5973.33333 L579.666667,5961.66667 C579.666667,5960.37809 580.711426,5959.33333 582,5959.33333 C583.288574,5959.33333 584.333333,5960.37809 584.333333,5961.66667 L584.333333,5973.33333 C584.333333,5974.62191 583.288574,5975.66667 582,5975.66667 C580.711426,5975.66667 579.666667,5974.62191 579.666667,5973.33333 Z M584.333333,5954.66667 C584.333333,5955.95524 583.288574,5957 582,5957 C580.711426,5957 579.666667,5955.95524 579.666667,5954.66667 C579.666667,5953.37809 580.711426,5952.33333 582,5952.33333 C583.288574,5952.33333 584.333333,5953.37809 584.333333,5954.66667 Z M514.333333,5940.66667 C515.621908,5940.66667 516.666667,5941.71143 516.666667,5943 C516.666667,5944.28857 515.621908,5945.33333 514.333333,5945.33333 L509.666667,5945.33333 L509.666667,5996.66667 L598.333333,5996.66667 L598.333333,5952.33333 C598.333333,5951.04476 599.378092,5950 600.666667,5950 C601.955241,5950 603,5951.04476 603,5952.33333 L603,5999 C603,6000.28857 601.955241,6001.33333 600.666667,6001.33333 L507.333333,6001.33333 C506.044759,6001.33333 505,6000.28857 505,5999 L505,5943 C505,5941.71143 506.044759,5940.66667 507.333333,5940.66667 L514.333333,5940.66667 Z M565.666667,5945.33333 L549.333333,5945.33333 C548.044759,5945.33333 547,5944.28857 547,5943 C547,5941.71143 548.044759,5940.66667 549.333333,5940.66667 L565.666667,5940.66667 C566.955241,5940.66667 568,5941.71143 568,5943 C568,5944.28857 566.955241,5945.33333 565.666667,5945.33333 Z M610,5950 C611.288574,5950 612.333333,5951.04476 612.333333,5952.33333 L612.333333,6003.66667 C612.333333,6007.53239 609.199056,6010.66667 605.333333,6010.66667 L572.666667,6010.66667 L572.666667,6020 L586.666667,6020 C587.955241,6020 589,6021.04476 589,6022.33333 C589,6023.62191 587.955241,6024.66667 586.666667,6024.66667 L521.333333,6024.66667 C520.044759,6024.66667 519,6025.71143 519,6027 C519,6028.28857 520.044759,6029.33333 521.333333,6029.33333 L586.666667,6029.33333 C587.955241,6029.33333 589,6030.37809 589,6031.66667 C589,6032.95524 587.955241,6034 586.666667,6034 L521.333333,6034 C517.467611,6034 514.333333,6030.86572 514.333333,6027 C514.333333,6023.13428 517.467611,6020 521.333333,6020 L535.333333,6020 L535.333333,6010.66667 L502.666667,6010.66667 C498.800944,6010.66667 495.666667,6007.53239 495.666667,6003.66667 L495.666667,5943 C495.666667,5941.71143 496.711426,5940.66667 498,5940.66667 C499.288574,5940.66667 500.333333,5941.71143 500.333333,5943 L500.333333,6003.66667 C500.333333,6004.95524 501.378092,6006 502.666667,6006 L605.333333,6006 C606.621908,6006 607.666667,6004.95524 607.666667,6003.66667 L607.666667,5952.33333 C607.666667,5951.04476 608.711426,5950 610,5950 Z M568,6020 L568,6010.66667 L540,6010.66667 L540,6020 L568,6020 Z M612.333333,5894 C618.773926,5894.00798 623.992025,5899.22607 624,5905.66667 L624,5933.66667 C623.992025,5940.10726 618.773926,5945.32536 612.333333,5945.33333 L584.333333,5945.33333 C578.791667,5945.3265 574.016764,5941.42887 572.900228,5936 L540,5936 L540,5952.33333 C540,5953.27669 539.431478,5954.12777 538.559896,5954.48893 C537.688314,5954.8501 536.68457,5954.64958 536.016927,5953.98307 L518.033854,5936 L491,5936 C487.134277,5936 484,5932.86572 484,5929 L484,5901 C484,5897.13428 487.134277,5894 491,5894 L542.333333,5894 C546.199056,5894 549.333333,5897.13428 549.333333,5901 L549.333333,5929 C549.325358,5929.79639 549.180664,5930.58594 548.903809,5931.33333 L572.666667,5931.33333 L572.666667,5905.66667 C572.674642,5899.22607 577.892741,5894.00798 584.333333,5894 L612.333333,5894 Z M537.666667,5931.33333 L542.333333,5931.33333 C543.621908,5931.33333 544.666667,5930.28857 544.666667,5929 L544.666667,5901 C544.666667,5899.71143 543.621908,5898.66667 542.333333,5898.66667 L491,5898.66667 C489.711426,5898.66667 488.666667,5899.71143 488.666667,5901 L488.666667,5929 C488.666667,5930.28857 489.711426,5931.33333 491,5931.33333 L519,5931.33333 C519.618652,5931.33333 520.21224,5931.57943 520.64974,5932.01693 L535.333333,5946.70052 L535.333333,5933.66667 C535.333333,5932.37809 536.378092,5931.33333 537.666667,5931.33333 Z M619.333333,5933.66667 L619.333333,5905.66667 C619.333333,5901.80094 616.199056,5898.66667 612.333333,5898.66667 L584.333333,5898.66667 C580.467611,5898.66667 577.333333,5901.80094 577.333333,5905.66667 L577.333333,5933.66667 C577.333333,5937.53239 580.467611,5940.66667 584.333333,5940.66667 L612.333333,5940.66667 C616.199056,5940.66667 619.333333,5937.53239 619.333333,5933.66667 Z M607.666667,5917.33333 C608.955241,5917.33333 610,5918.37809 610,5919.66667 C610,5926.10954 604.776204,5931.33333 598.333333,5931.33333 C591.890462,5931.33333 586.666667,5926.10954 586.666667,5919.66667 C586.666667,5913.2238 591.890462,5908 598.333333,5908 C599.621908,5908 600.666667,5909.04476 600.666667,5910.33333 C600.666667,5911.62191 599.621908,5912.66667 598.333333,5912.66667 C594.467611,5912.66667 591.333333,5915.80094 591.333333,5919.66667 C591.333333,5923.53239 594.467611,5926.66667 598.333333,5926.66667 C602.199056,5926.66667 605.333333,5923.53239 605.333333,5919.66667 C605.333333,5918.37809 606.378092,5917.33333 607.666667,5917.33333 Z M530.666667,5903.33333 C531.955241,5903.33333 533,5904.37809 533,5905.66667 C533,5906.95524 531.955241,5908 530.666667,5908 L507.333333,5908 C506.044759,5908 505,5906.95524 505,5905.66667 C505,5904.37809 506.044759,5903.33333 507.333333,5903.33333 L530.666667,5903.33333 Z M498,5917.33333 C496.711426,5917.33333 495.666667,5916.28857 495.666667,5915 C495.666667,5913.71143 496.711426,5912.66667 498,5912.66667 L516.666667,5912.66667 C517.955241,5912.66667 519,5913.71143 519,5915 C519,5916.28857 517.955241,5917.33333 516.666667,5917.33333 L498,5917.33333 Z M530.666667,5922 C531.955241,5922 533,5923.04476 533,5924.33333 C533,5925.62191 531.955241,5926.66667 530.666667,5926.66667 L509.666667,5926.66667 C508.378092,5926.66667 507.333333,5925.62191 507.333333,5924.33333 C507.333333,5923.04476 508.378092,5922 509.666667,5922 L530.666667,5922 Z M500.333333,5922 C501.621908,5922 502.666667,5923.04476 502.666667,5924.33333 C502.666667,5925.62191 501.621908,5926.66667 500.333333,5926.66667 L498,5926.66667 C496.711426,5926.66667 495.666667,5925.62191 495.666667,5924.33333 C495.666667,5923.04476 496.711426,5922 498,5922 L500.333333,5922 Z M530.666667,5912.66667 C531.955241,5912.66667 533,5913.71143 533,5915 C533,5916.28857 531.955241,5917.33333 530.666667,5917.33333 L526,5917.33333 C524.711426,5917.33333 523.666667,5916.28857 523.666667,5915 C523.666667,5913.71143 524.711426,5912.66667 526,5912.66667 L530.666667,5912.66667 Z" id="Blog"></path>
        </g>
    </g>
</svg>