<?xml version="1.0" encoding="UTF-8"?>
<svg width="40px" height="40px" viewBox="0 0 40 40" version="1.1" xmlns="http://www.w3.org/2000/svg" xmlns:xlink="http://www.w3.org/1999/xlink">
    <!-- Generator: Sketch 51.3 (57544) - http://www.bohemiancoding.com/sketch -->
    <title>telegram</title>
    <desc>Created with Sketch.</desc>
    <defs></defs>
    <g id="Symbols" stroke="none" stroke-width="1" fill="none" fill-rule="evenodd">
        <g id="header" transform="translate(-924.000000, -5.000000)" fill-rule="nonzero">
            <g id="telegram" transform="translate(924.000000, 5.000000)">
                <rect id="Rectangle-8" fill="#31A5DB" x="0" y="0" width="40" height="40" rx="20"></rect>
                <g transform="translate(9.000000, 12.000000)" fill="#FFFFFF" id="XMLID_497_">
                    <path d="M0.335596478,8.15143824 L4.71358221,9.83061113 L6.4081311,15.430913 C6.5165579,15.7895922 6.9433618,15.9221687 7.22665217,15.6841557 L9.66701536,13.6397302 C9.92281903,13.425538 10.2871762,13.4148642 10.5545065,13.6142823 L14.9560523,16.8982368 C15.2591027,17.1245997 15.6884399,16.9539489 15.76444,16.5776319 L18.9888076,0.639092113 C19.0717743,0.228020178 18.6787272,-0.114908579 18.29784,0.0364773174 L0.330466471,7.15935947 C-0.112930776,7.33508687 -0.109067438,7.98020166 0.335596478,8.15143824 Z M6.1350374,8.93674444 L14.6912553,3.52128173 C14.8450288,3.42424115 15.0032357,3.63791265 14.8711855,3.76378553 L7.80982626,10.5091141 C7.56162261,10.7465414 7.40151573,11.0642825 7.356169,11.4091638 L7.11562869,13.2410243 C7.08377198,13.4856108 6.74943488,13.5098872 6.68375812,13.2731759 L5.75864691,9.93272827 C5.65269011,9.55172524 5.80709697,9.14475361 6.1350374,8.93674444 Z"></path>
                </g>
            </g>
        </g>
    </g>
</svg>