<svg xmlns="http://www.w3.org/2000/svg" width="24" height="24" viewBox="0 0 24 24"><g><g><path fill="#244769" d="M15.361 21.142c-.069-.94-.146-2.103-.15-2.574-.03-.361-.07-1.28-.942-1.868 3.465-.29 5.115-2.206 5.233-4.737.1-1.441-.474-2.709-1.492-3.732a20.505 20.505 0 0 0-.103-2.96c-.782-.226-2.604.737-3.113 1.148-1.074-.417-3.703-.563-5.3 0-1.133-.796-2.422-1.288-3.125-1.15-.649 1.437-.232 2.796-.105 2.958-.836.763-2.001 1.703-1.685 3.672.508 2.887 2.54 4.444 5.81 4.825-.698.142-.816.663-.875.888-2.196.906-2.823-.56-3.1-.94-.923-1.142-1.75-.81-1.8-.793-.05.018-.088.09-.083.125.047.246.549.495.573.515.68.507.933 1.423 1.088 1.684.976 1.604 3.244.94 3.265.953.002.14-.015 1.32-.029 2.24C5.293 20.265 2.25 16.492 2.25 12c0-5.385 4.365-9.75 9.75-9.75s9.75 4.365 9.75 9.75c0 4.202-2.663 7.771-6.389 9.142zM12 0C5.373 0 0 5.373 0 12c0 6.628 5.373 12 12 12s12-5.372 12-12c0-6.627-5.373-12-12-12z"/></g></g></svg>